<svg width="32" height="32" viewBox="-1 0 34 34" fill="none" xmlns="http://www.w3.org/2000/svg">
<path d="M19.3004 13.2785V1.33105H0C0 1.41858 0 1.50611 0 1.59364C0 6.01377 1.53526 10.0838 4.03554 13.2785H12.3698H19.3004Z" fill="#7DCBC1"/>
<path d="M19.3877 13.2783V28.2455C22.6775 30.9151 26.8447 32.5343 31.4066 32.5343C31.4943 32.5343 31.582 32.5343 31.6698 32.5343V13.2783H19.3877Z" fill="#FF5E00"/>
<path d="M13.4227 19.7116C9.65036 18.5737 6.40438 16.298 4.0357 13.2783H0.0878906C0.0878906 13.3658 0.0878906 13.4534 0.0878906 13.5409C0.0878906 24.0442 8.59761 32.5343 19.1251 32.5343C19.2128 32.5343 19.3006 32.5343 19.3883 32.5343V28.2893C16.6687 26.0573 14.5632 23.1251 13.4227 19.7116Z" fill="#015C9A"/>
<path d="M13.4222 19.7116C12.7642 17.786 12.3694 15.6853 12.3694 13.5409C12.3694 13.4534 12.3694 13.3658 12.3694 13.2783H4.03516C6.40384 16.298 9.64981 18.5737 13.4222 19.7116Z" fill="#00BDCF"/>
<path d="M26.4498 10.2151C28.9063 10.2151 30.8802 8.24572 30.8802 5.79495V1.33105H26.4498C23.9934 1.33105 22.0195 3.30042 22.0195 5.75119C22.0195 8.20195 23.9934 10.2151 26.4498 10.2151Z" fill="#7DCBC1"/>
<path d="M19.3007 13.2783H12.3701C12.3701 13.3658 12.3701 13.4534 12.3701 13.5409C12.3701 15.6853 12.721 17.786 13.4229 19.7116C14.6072 23.0814 16.6688 26.0573 19.3884 28.2455V13.2783H19.3007Z" fill="#FF3A00"/>
</svg>
